<svg width="32" height="32" viewBox="0 0 32 32" fill="none" xmlns="http://www.w3.org/2000/svg">
  <path d="M16 2C10.48 2 6 6.48 6 12v12c0 1.06.8 1.6 1.6 1.06l2.13-2.13c.53-.53 1.33-.53 1.87 0l1.87 1.87c.53.53 1.33.53 1.87 0l1.33-1.33c.53-.53 1.33-.53 1.87 0l1.33 1.33c.53.53 1.33.53 1.87 0l1.87-1.87c.53-.53 1.33-.53 1.87 0l2.13 2.13c.8.53 1.6 0 1.6-1.06V12c0-5.52-4.48-10-10-10z" fill="#22C55E"/>
  <circle cx="12" cy="13" r="2" fill="white"/>
  <circle cx="20" cy="13" r="2" fill="white"/>
  <circle cx="12" cy="13" r="1" fill="#111111"/>
  <circle cx="20" cy="13" r="1" fill="#111111"/>
  <circle cx="20" cy="13" r="3.2" stroke="white" stroke-width="0.8" fill="none"/>
  <line x1="23.2" y1="13" x2="25" y2="16" stroke="white" stroke-width="0.8"/>
</svg>
