<svg width="32" height="32" viewBox="0 0 24 24" fill="none" xmlns="http://www.w3.org/2000/svg">
  <circle cx="12" cy="12" r="11" fill="#111111"/>
  <!-- Ghost body -->
  <path d="M12 4C8.69 4 6 6.69 6 10v5.5c0 .53.4.8.8.53l1.07-1.07c.27-.27.67-.27.93 0l.93.93c.27.27.67.27.93 0l.67-.67c.27-.27.67-.27.93 0l.67.67c.27.27.67.27.93 0l.93-.93c.27-.27.67-.27.93 0l1.07 1.07c.4.27.8 0 .8-.53V10c0-3.31-2.69-6-6-6z" fill="#22C55E"/>
  <!-- Eyes -->
  <circle cx="10" cy="10" r="1" fill="#111111"/>
  <circle cx="14" cy="10" r="1" fill="#111111"/>
  <!-- Monocle -->
  <circle cx="14" cy="10" r="1.8" stroke="#86EFAC" stroke-width="0.6" fill="none"/>
  <line x1="15.8" y1="10" x2="17" y2="11.5" stroke="#86EFAC" stroke-width="0.6"/>
</svg>
